<mxfile host="app.diagrams.net" modified="2021-04-10T13:52:13.173Z" agent="5.0 (Windows NT 10.0; Win64; x64) AppleWebKit/537.36 (KHTML, like Gecko) Chrome/89.0.4389.114 Safari/537.36" etag="IxlXq8alTV8Sfda5i5GZ" version="14.4.3" type="github">
  <diagram id="cshhwLrNGFrXgR3tHYp8" name="Assigning Frames">
    <mxGraphModel dx="897" dy="400" grid="1" gridSize="10" guides="1" tooltips="1" connect="1" arrows="1" fold="1" page="1" pageScale="1" pageWidth="827" pageHeight="1169" math="0" shadow="0">
      <root>
        <mxCell id="0" />
        <mxCell id="1" parent="0" />
        <mxCell id="vNoVYXsCR9sfd-hZkTLt-359" value="" style="endArrow=classic;html=1;" edge="1" parent="1">
          <mxGeometry width="50" height="50" relative="1" as="geometry">
            <mxPoint x="120" y="480" as="sourcePoint" />
            <mxPoint x="70" y="540" as="targetPoint" />
          </mxGeometry>
        </mxCell>
        <mxCell id="vNoVYXsCR9sfd-hZkTLt-360" value="" style="endArrow=classic;html=1;" edge="1" parent="1" source="vNoVYXsCR9sfd-hZkTLt-390">
          <mxGeometry width="50" height="50" relative="1" as="geometry">
            <mxPoint x="120" y="480" as="sourcePoint" />
            <mxPoint x="90" y="400" as="targetPoint" />
          </mxGeometry>
        </mxCell>
        <mxCell id="vNoVYXsCR9sfd-hZkTLt-361" value="" style="endArrow=classic;html=1;" edge="1" parent="1">
          <mxGeometry width="50" height="50" relative="1" as="geometry">
            <mxPoint x="120" y="480" as="sourcePoint" />
            <mxPoint x="200" y="450" as="targetPoint" />
          </mxGeometry>
        </mxCell>
        <mxCell id="vNoVYXsCR9sfd-hZkTLt-362" value="" style="endArrow=classic;html=1;" edge="1" parent="1">
          <mxGeometry width="50" height="50" relative="1" as="geometry">
            <mxPoint x="280" y="420" as="sourcePoint" />
            <mxPoint x="240" y="480" as="targetPoint" />
          </mxGeometry>
        </mxCell>
        <mxCell id="vNoVYXsCR9sfd-hZkTLt-363" value="" style="endArrow=classic;html=1;" edge="1" parent="1">
          <mxGeometry width="50" height="50" relative="1" as="geometry">
            <mxPoint x="280" y="420" as="sourcePoint" />
            <mxPoint x="250" y="350" as="targetPoint" />
          </mxGeometry>
        </mxCell>
        <mxCell id="vNoVYXsCR9sfd-hZkTLt-364" value="" style="endArrow=classic;html=1;" edge="1" parent="1">
          <mxGeometry width="50" height="50" relative="1" as="geometry">
            <mxPoint x="280" y="420" as="sourcePoint" />
            <mxPoint x="330" y="400" as="targetPoint" />
          </mxGeometry>
        </mxCell>
        <mxCell id="vNoVYXsCR9sfd-hZkTLt-365" value="" style="endArrow=classic;html=1;" edge="1" parent="1">
          <mxGeometry width="50" height="50" relative="1" as="geometry">
            <mxPoint x="440" y="360" as="sourcePoint" />
            <mxPoint x="410" y="420" as="targetPoint" />
          </mxGeometry>
        </mxCell>
        <mxCell id="vNoVYXsCR9sfd-hZkTLt-366" value="" style="endArrow=classic;html=1;" edge="1" parent="1">
          <mxGeometry width="50" height="50" relative="1" as="geometry">
            <mxPoint x="440" y="360" as="sourcePoint" />
            <mxPoint x="410" y="290" as="targetPoint" />
          </mxGeometry>
        </mxCell>
        <mxCell id="vNoVYXsCR9sfd-hZkTLt-367" value="" style="endArrow=classic;html=1;" edge="1" parent="1">
          <mxGeometry width="50" height="50" relative="1" as="geometry">
            <mxPoint x="440" y="360" as="sourcePoint" />
            <mxPoint x="390" y="380" as="targetPoint" />
          </mxGeometry>
        </mxCell>
        <mxCell id="vNoVYXsCR9sfd-hZkTLt-368" value="" style="endArrow=classic;html=1;" edge="1" parent="1">
          <mxGeometry width="50" height="50" relative="1" as="geometry">
            <mxPoint x="560" y="200" as="sourcePoint" />
            <mxPoint x="530" y="250" as="targetPoint" />
          </mxGeometry>
        </mxCell>
        <mxCell id="vNoVYXsCR9sfd-hZkTLt-369" value="" style="endArrow=classic;html=1;" edge="1" parent="1">
          <mxGeometry width="50" height="50" relative="1" as="geometry">
            <mxPoint x="560" y="200" as="sourcePoint" />
            <mxPoint x="560" y="140" as="targetPoint" />
          </mxGeometry>
        </mxCell>
        <mxCell id="vNoVYXsCR9sfd-hZkTLt-370" value="" style="endArrow=classic;html=1;" edge="1" parent="1">
          <mxGeometry width="50" height="50" relative="1" as="geometry">
            <mxPoint x="560" y="200" as="sourcePoint" />
            <mxPoint x="620" y="200" as="targetPoint" />
          </mxGeometry>
        </mxCell>
        <mxCell id="vNoVYXsCR9sfd-hZkTLt-371" value="" style="endArrow=none;html=1;strokeColor=#FF1443;" edge="1" parent="1" source="vNoVYXsCR9sfd-hZkTLt-393">
          <mxGeometry width="50" height="50" relative="1" as="geometry">
            <mxPoint x="120" y="480" as="sourcePoint" />
            <mxPoint x="440" y="360" as="targetPoint" />
          </mxGeometry>
        </mxCell>
        <mxCell id="vNoVYXsCR9sfd-hZkTLt-372" value="" style="endArrow=none;html=1;strokeColor=#FF1443;" edge="1" parent="1">
          <mxGeometry width="50" height="50" relative="1" as="geometry">
            <mxPoint x="440" y="360" as="sourcePoint" />
            <mxPoint x="560" y="200" as="targetPoint" />
          </mxGeometry>
        </mxCell>
        <mxCell id="vNoVYXsCR9sfd-hZkTLt-373" value="&lt;font color=&quot;#6666ff&quot;&gt;y0&lt;/font&gt;" style="text;html=1;align=center;verticalAlign=middle;resizable=0;points=[];autosize=1;" vertex="1" parent="1">
          <mxGeometry x="70" y="380" width="30" height="20" as="geometry" />
        </mxCell>
        <mxCell id="vNoVYXsCR9sfd-hZkTLt-374" value="&lt;font color=&quot;#00cc00&quot;&gt;z0&lt;/font&gt;" style="text;html=1;align=center;verticalAlign=middle;resizable=0;points=[];autosize=1;" vertex="1" parent="1">
          <mxGeometry x="55" y="540" width="30" height="20" as="geometry" />
        </mxCell>
        <mxCell id="vNoVYXsCR9sfd-hZkTLt-375" value="&lt;font color=&quot;#ff0000&quot;&gt;x0&lt;/font&gt;" style="text;html=1;align=center;verticalAlign=middle;resizable=0;points=[];autosize=1;" vertex="1" parent="1">
          <mxGeometry x="180" y="460" width="30" height="20" as="geometry" />
        </mxCell>
        <mxCell id="vNoVYXsCR9sfd-hZkTLt-376" value="&lt;font color=&quot;#6666ff&quot;&gt;y1&lt;/font&gt;" style="text;html=1;align=center;verticalAlign=middle;resizable=0;points=[];autosize=1;" vertex="1" parent="1">
          <mxGeometry x="225" y="480" width="30" height="20" as="geometry" />
        </mxCell>
        <mxCell id="vNoVYXsCR9sfd-hZkTLt-377" value="&lt;font color=&quot;#00cc00&quot;&gt;z1&lt;/font&gt;" style="text;html=1;align=center;verticalAlign=middle;resizable=0;points=[];autosize=1;" vertex="1" parent="1">
          <mxGeometry x="320" y="400" width="30" height="20" as="geometry" />
        </mxCell>
        <mxCell id="vNoVYXsCR9sfd-hZkTLt-378" value="&lt;font color=&quot;#ff0000&quot;&gt;x1&lt;/font&gt;" style="text;html=1;align=center;verticalAlign=middle;resizable=0;points=[];autosize=1;" vertex="1" parent="1">
          <mxGeometry x="235" y="330" width="30" height="20" as="geometry" />
        </mxCell>
        <mxCell id="vNoVYXsCR9sfd-hZkTLt-379" value="&lt;font color=&quot;#6666ff&quot;&gt;y2&lt;/font&gt;" style="text;html=1;align=center;verticalAlign=middle;resizable=0;points=[];autosize=1;" vertex="1" parent="1">
          <mxGeometry x="375" y="350" width="30" height="20" as="geometry" />
        </mxCell>
        <mxCell id="vNoVYXsCR9sfd-hZkTLt-380" value="&lt;font color=&quot;#00cc00&quot;&gt;z2&lt;/font&gt;" style="text;html=1;align=center;verticalAlign=middle;resizable=0;points=[];autosize=1;" vertex="1" parent="1">
          <mxGeometry x="415" y="420" width="30" height="20" as="geometry" />
        </mxCell>
        <mxCell id="vNoVYXsCR9sfd-hZkTLt-381" value="&lt;font color=&quot;#ff0000&quot;&gt;x2&lt;/font&gt;" style="text;html=1;align=center;verticalAlign=middle;resizable=0;points=[];autosize=1;" vertex="1" parent="1">
          <mxGeometry x="395" y="270" width="30" height="20" as="geometry" />
        </mxCell>
        <mxCell id="vNoVYXsCR9sfd-hZkTLt-382" value="&lt;font color=&quot;#00cc00&quot;&gt;zb&lt;/font&gt;" style="text;html=1;align=center;verticalAlign=middle;resizable=0;points=[];autosize=1;" vertex="1" parent="1">
          <mxGeometry x="545" y="120" width="30" height="20" as="geometry" />
        </mxCell>
        <mxCell id="vNoVYXsCR9sfd-hZkTLt-383" value="&lt;font color=&quot;#6666ff&quot;&gt;yb&lt;/font&gt;" style="text;html=1;align=center;verticalAlign=middle;resizable=0;points=[];autosize=1;" vertex="1" parent="1">
          <mxGeometry x="610" y="200" width="30" height="20" as="geometry" />
        </mxCell>
        <mxCell id="vNoVYXsCR9sfd-hZkTLt-384" value="&lt;font color=&quot;#ff0000&quot;&gt;xb&lt;/font&gt;" style="text;html=1;align=center;verticalAlign=middle;resizable=0;points=[];autosize=1;" vertex="1" parent="1">
          <mxGeometry x="530" y="250" width="30" height="20" as="geometry" />
        </mxCell>
        <mxCell id="vNoVYXsCR9sfd-hZkTLt-385" value="" style="whiteSpace=wrap;html=1;" vertex="1" parent="1">
          <mxGeometry x="600" y="360" width="120" height="80" as="geometry" />
        </mxCell>
        <mxCell id="vNoVYXsCR9sfd-hZkTLt-386" value="&lt;font style=&quot;font-size: 18px&quot; color=&quot;#0000ff&quot;&gt;1&lt;/font&gt;" style="text;html=1;align=center;verticalAlign=middle;resizable=0;points=[];autosize=1;" vertex="1" parent="1">
          <mxGeometry x="175" y="410" width="30" height="20" as="geometry" />
        </mxCell>
        <mxCell id="vNoVYXsCR9sfd-hZkTLt-387" value="&lt;font style=&quot;font-size: 18px&quot; color=&quot;#0f0fff&quot;&gt;2&lt;/font&gt;" style="text;html=1;align=center;verticalAlign=middle;resizable=0;points=[];autosize=1;" vertex="1" parent="1">
          <mxGeometry x="335" y="360" width="30" height="20" as="geometry" />
        </mxCell>
        <mxCell id="vNoVYXsCR9sfd-hZkTLt-389" value="&lt;font style=&quot;font-size: 18px&quot; color=&quot;#0000ff&quot;&gt;3&lt;/font&gt;" style="text;html=1;align=center;verticalAlign=middle;resizable=0;points=[];autosize=1;" vertex="1" parent="1">
          <mxGeometry x="465" y="260" width="30" height="20" as="geometry" />
        </mxCell>
        <mxCell id="vNoVYXsCR9sfd-hZkTLt-390" value="" style="ellipse;whiteSpace=wrap;html=1;aspect=fixed;" vertex="1" parent="1">
          <mxGeometry x="110" y="470" width="20" height="20" as="geometry" />
        </mxCell>
        <mxCell id="vNoVYXsCR9sfd-hZkTLt-392" value="" style="endArrow=classic;html=1;" edge="1" parent="1" target="vNoVYXsCR9sfd-hZkTLt-390">
          <mxGeometry width="50" height="50" relative="1" as="geometry">
            <mxPoint x="120" y="480" as="sourcePoint" />
            <mxPoint x="90" y="400" as="targetPoint" />
          </mxGeometry>
        </mxCell>
        <mxCell id="vNoVYXsCR9sfd-hZkTLt-393" value="" style="ellipse;whiteSpace=wrap;html=1;aspect=fixed;" vertex="1" parent="1">
          <mxGeometry x="430" y="350" width="20" height="20" as="geometry" />
        </mxCell>
        <mxCell id="vNoVYXsCR9sfd-hZkTLt-394" value="" style="endArrow=none;html=1;strokeColor=#FF1443;exitX=1.002;exitY=0.309;exitDx=0;exitDy=0;exitPerimeter=0;" edge="1" parent="1" source="vNoVYXsCR9sfd-hZkTLt-390" target="vNoVYXsCR9sfd-hZkTLt-393">
          <mxGeometry width="50" height="50" relative="1" as="geometry">
            <mxPoint x="120" y="480" as="sourcePoint" />
            <mxPoint x="440" y="360" as="targetPoint" />
          </mxGeometry>
        </mxCell>
        <mxCell id="vNoVYXsCR9sfd-hZkTLt-395" value="" style="shape=flexArrow;endArrow=classic;startArrow=classic;html=1;shadow=1;strokeColor=#000000;endWidth=8.372093023255815;endSize=6.7953488372093025;width=5.116279069767442;startSize=6.318604651162792;startWidth=8.372093023255815;" edge="1" parent="1">
          <mxGeometry width="50" height="50" relative="1" as="geometry">
            <mxPoint x="240" y="412.5" as="sourcePoint" />
            <mxPoint x="300" y="387.5" as="targetPoint" />
          </mxGeometry>
        </mxCell>
        <mxCell id="vNoVYXsCR9sfd-hZkTLt-401" value="" style="edgeStyle=elbowEdgeStyle;elbow=horizontal;endArrow=classic;html=1;shadow=1;strokeColor=#000000;" edge="1" parent="1">
          <mxGeometry width="50" height="50" relative="1" as="geometry">
            <mxPoint x="130" y="490" as="sourcePoint" />
            <mxPoint x="120" y="460" as="targetPoint" />
            <Array as="points">
              <mxPoint x="140" y="470" />
            </Array>
          </mxGeometry>
        </mxCell>
        <mxCell id="vNoVYXsCR9sfd-hZkTLt-402" value="" style="edgeStyle=elbowEdgeStyle;elbow=horizontal;endArrow=classic;html=1;shadow=1;strokeColor=#000000;" edge="1" parent="1">
          <mxGeometry width="50" height="50" relative="1" as="geometry">
            <mxPoint x="445" y="375" as="sourcePoint" />
            <mxPoint x="435" y="345" as="targetPoint" />
            <Array as="points">
              <mxPoint x="460" y="360" />
            </Array>
          </mxGeometry>
        </mxCell>
        <mxCell id="vNoVYXsCR9sfd-hZkTLt-403" value="end-effector" style="text;html=1;align=center;verticalAlign=middle;resizable=0;points=[];autosize=1;" vertex="1" parent="1">
          <mxGeometry x="575" y="170" width="80" height="20" as="geometry" />
        </mxCell>
        <mxCell id="vNoVYXsCR9sfd-hZkTLt-405" value="" style="shape=partialRectangle;whiteSpace=wrap;html=1;bottom=1;right=1;left=1;top=0;fillColor=none;routingCenterX=-0.5;rotation=-115;" vertex="1" parent="1">
          <mxGeometry x="256.44" y="397.73" width="25" height="60" as="geometry" />
        </mxCell>
      </root>
    </mxGraphModel>
  </diagram>
</mxfile>
